<svg xmlns="http://www.w3.org/2000/svg" version="1.1" viewBox="0.00 0.00 100.00 100.00" width="100.00" height="100.00">
<path fill="#fa5252" d="&#10;  M 50.89 0.00&#10;  L 92.36 47.37&#10;  A 0.24 0.23 59.0 0 1 92.27 47.74&#10;  L 61.64 59.82&#10;  A 0.68 0.67 -16.5 0 0 61.22 60.58&#10;  L 61.78 63.50&#10;  A 0.40 0.40 0.0 0 1 61.30 63.96&#10;  L 14.52 53.47&#10;  Q 13.51 53.25 14.19 54.03&#10;  L 50.42 95.42&#10;  A 0.30 0.29 -55.9 0 0 50.92 95.32&#10;  L 61.66 64.55&#10;  Q 61.83 64.08 62.29 63.90&#10;  L 92.29 52.06&#10;  Q 93.22 51.70 92.56 52.45&#10;  L 50.96 100.00&#10;  L 49.17 100.00&#10;  L 6.46 51.18&#10;  A 1.79 1.79 0.0 0 1 6.46 48.82&#10;  L 49.14 0.00&#10;  L 50.89 0.00&#10;  Z&#10;  M 12.04 48.41&#10;  A 0.31 0.31 0.0 0 0 12.21 48.91&#10;  L 60.61 59.76&#10;  A 0.31 0.31 0.0 0 0 60.98 59.40&#10;  L 50.62 5.13&#10;  A 0.31 0.31 0.0 0 0 50.08 4.99&#10;  L 12.04 48.41&#10;  Z"/>
</svg>